<svg width="31" height="30" viewBox="0 0 31 30" fill="none" xmlns="http://www.w3.org/2000/svg">
<rect x="0.5" width="30" height="30" rx="4" fill="#EBFFED"/>
<path d="M19.447 13.0897H13.3145C13.0761 13.0897 12.8828 12.9127 12.8828 12.6943C12.8828 12.4759 13.076 12.2988 13.3145 12.2988H19.4468C19.6851 12.2988 19.8784 12.4758 19.8784 12.6943C19.8784 12.9127 19.6851 13.0897 19.4469 13.0897H19.447Z" fill="#58D365" fill-opacity="0.7"/>
<path d="M19.447 15.9628H13.3145C13.0761 15.9628 12.8828 15.7858 12.8828 15.5673C12.8828 15.3489 13.076 15.1719 13.3145 15.1719H19.4468C19.6851 15.1719 19.8784 15.3489 19.8784 15.5673C19.8784 15.7858 19.6851 15.9628 19.4469 15.9628H19.447Z" fill="#58D365" fill-opacity="0.7"/>
<path d="M13.377 18.65C13.1386 18.65 12.9453 18.473 12.9453 18.2546C12.9453 18.0362 13.1385 17.8591 13.377 17.8591C15.6866 17.8591 17.6377 16.7559 17.6377 15.4501C17.6377 14.1442 15.6865 13.0409 13.377 13.0409C13.1386 13.0409 12.9453 12.8639 12.9453 12.6455C12.9453 12.4271 13.1385 12.25 13.377 12.25C16.2504 12.25 18.5011 13.6556 18.5011 15.45C18.5011 17.2443 16.2504 18.65 13.377 18.65V18.65Z" fill="#58D365" fill-opacity="0.7"/>
<path d="M17.9897 23.3019C17.8747 23.3019 17.7601 23.2601 17.675 23.1774L13.1171 18.7345C12.9538 18.5753 12.9623 18.3251 13.136 18.1756C13.3097 18.0261 13.5827 18.0339 13.7462 18.1928L18.304 22.6357C18.4673 22.7949 18.4589 23.0451 18.2852 23.1947C18.2018 23.2663 18.0956 23.3019 17.9895 23.3019L17.9897 23.3019Z" fill="#58D365" fill-opacity="0.7"/>
<path d="M4.53548 15.2112H6.61928V26.3248C6.61928 26.7138 6.92491 27.0194 7.31387 27.0194H25.3734C25.7624 27.0194 26.068 26.7138 26.068 26.3248V15.2112H28.1518C28.7631 15.2112 29.0687 14.461 28.6518 14.0166L16.8437 2.20844C16.5657 1.93052 16.1213 1.93052 15.8711 2.20844L4.03567 14.0166C3.61879 14.461 3.92442 15.2112 4.53568 15.2112H4.53548ZM16.3437 3.68089L26.4848 13.822H25.3735C24.9846 13.822 24.6789 14.1277 24.6789 14.5166V25.6302H8.00857V14.5166C8.00857 14.1277 7.70294 13.822 7.31397 13.822H6.20271L16.3437 3.68089Z" fill="#58D365" fill-opacity="0.7"/>
</svg>
