<svg width="20" height="20" viewBox="0 0 20 20" fill="none" xmlns="http://www.w3.org/2000/svg">
<path d="M11.4417 17.4993C11.2952 17.7519 11.0849 17.9616 10.8319 18.1073C10.5788 18.253 10.292 18.3297 10 18.3297C9.70802 18.3297 9.42116 18.253 9.16814 18.1073C8.91513 17.9616 8.70484 17.7519 8.55833 17.4993M15 6.66602C15 5.33993 14.4732 4.06816 13.5355 3.13048C12.5979 2.1928 11.3261 1.66602 10 1.66602C8.67392 1.66602 7.40215 2.1928 6.46447 3.13048C5.52678 4.06816 5 5.33993 5 6.66602C5 12.4993 2.5 14.166 2.5 14.166H17.5C17.5 14.166 15 12.4993 15 6.66602Z" stroke="#5D6679" stroke-width="1.2" stroke-linecap="round" stroke-linejoin="round"/>
</svg>
