<svg width="30" height="30" viewBox="0 0 30 30" fill="none" xmlns="http://www.w3.org/2000/svg">
<rect width="30" height="30" rx="4" fill="#E7E5FF"/>
<path fill-rule="evenodd" clip-rule="evenodd" d="M6.68919 2C5.75621 2 5 2.75621 5 3.68919V25.3108C5 26.2438 5.75621 27 6.68919 27H22.9054C23.8384 27 24.5946 26.2438 24.5946 25.3108V3.68919C24.5946 2.75621 23.8384 2 22.9054 2H6.68919ZM9.48619 2.67562H6.68919C6.12927 2.67562 5.67561 3.12925 5.67561 3.68919V25.3108C5.67561 25.8707 6.12925 26.3244 6.68919 26.3244H22.9054C23.4653 26.3244 23.919 25.8707 23.919 25.3108V3.68919C23.919 3.12927 23.4653 2.67562 22.9054 2.67562H20.1084L19.6637 4.00965C19.5259 4.42347 19.1384 4.7027 18.7022 4.7027H10.8927C10.4565 4.7027 10.0691 4.42345 9.93122 4.00965L9.48619 2.67562ZM19.3963 2.67562H10.1987L10.5722 3.79591C10.6181 3.93401 10.7473 4.02685 10.8927 4.02685H18.7022C18.8476 4.02685 18.9767 3.934 19.0226 3.79591L19.3963 2.67562Z" fill="#817AF3" fill-opacity="0.8"/>
<path fill-rule="evenodd" clip-rule="evenodd" d="M8.03906 9.43154C8.03906 8.87186 8.4927 8.41797 9.05264 8.41797H10.4039C10.9638 8.41797 11.4174 8.87184 11.4174 9.43154V10.7828C11.4174 11.3427 10.9638 11.7963 10.4039 11.7963H9.05264C8.49272 11.7963 8.03906 11.3427 8.03906 10.7828V9.43154ZM9.05264 9.09361C8.86599 9.09361 8.7147 9.2449 8.7147 9.43154V10.7828C8.7147 10.9694 8.86599 11.1207 9.05264 11.1207H10.4039C10.5905 11.1207 10.7418 10.9694 10.7418 10.7828V9.43154C10.7418 9.2449 10.5905 9.09361 10.4039 9.09361H9.05264Z" fill="#817AF3" fill-opacity="0.8"/>
<path fill-rule="evenodd" clip-rule="evenodd" d="M8.03906 14.4999C8.03906 13.9402 8.4927 13.4863 9.05264 13.4863H10.4039C10.9638 13.4863 11.4174 13.9402 11.4174 14.4999V15.8511C11.4174 16.4111 10.9638 16.8647 10.4039 16.8647H9.05264C8.49272 16.8647 8.03906 16.4111 8.03906 15.8511V14.4999ZM9.05264 14.162C8.86599 14.162 8.7147 14.3133 8.7147 14.4999V15.8511C8.7147 16.0378 8.86599 16.1891 9.05264 16.1891H10.4039C10.5905 16.1891 10.7418 16.0378 10.7418 15.8511V14.4999C10.7418 14.3133 10.5905 14.162 10.4039 14.162H9.05264Z" fill="#817AF3" fill-opacity="0.8"/>
<path fill-rule="evenodd" clip-rule="evenodd" d="M8.03906 19.5683C8.03906 19.0086 8.4927 18.5547 9.05264 18.5547H10.4039C10.9638 18.5547 11.4174 19.0086 11.4174 19.5683V20.9195C11.4174 21.4794 10.9638 21.9331 10.4039 21.9331H9.05264C8.49272 21.9331 8.03906 21.4794 8.03906 20.9195V19.5683ZM9.05264 19.2303C8.86599 19.2303 8.7147 19.3816 8.7147 19.5683V20.9195C8.7147 21.1061 8.86599 21.2574 9.05264 21.2574H10.4039C10.5905 21.2574 10.7418 21.1061 10.7418 20.9195V19.5683C10.7418 19.3816 10.5905 19.2303 10.4039 19.2303H9.05264Z" fill="#817AF3" fill-opacity="0.8"/>
<path fill-rule="evenodd" clip-rule="evenodd" d="M12.7734 10.1072C12.7734 9.92059 12.9247 9.76953 13.1114 9.76953H21.5573C21.744 9.76953 21.8953 9.92059 21.8953 10.1072C21.8953 10.2939 21.744 10.4452 21.5573 10.4452H13.1114C12.9247 10.4452 12.7734 10.2939 12.7734 10.1072Z" fill="#817AF3" fill-opacity="0.8"/>
<path fill-rule="evenodd" clip-rule="evenodd" d="M12.7734 15.1756C12.7734 14.9889 12.9247 14.8379 13.1114 14.8379H21.5573C21.744 14.8379 21.8953 14.9889 21.8953 15.1756C21.8953 15.3622 21.744 15.5135 21.5573 15.5135H13.1114C12.9247 15.5135 12.7734 15.3622 12.7734 15.1756Z" fill="#817AF3" fill-opacity="0.8"/>
<path fill-rule="evenodd" clip-rule="evenodd" d="M12.7734 20.244C12.7734 20.0573 12.9247 19.9062 13.1114 19.9062H21.5573C21.744 19.9062 21.8953 20.0573 21.8953 20.244C21.8953 20.4306 21.744 20.5819 21.5573 20.5819H13.1114C12.9247 20.5819 12.7734 20.4306 12.7734 20.244Z" fill="#817AF3" fill-opacity="0.8"/>
</svg>
