<svg width="88" height="88" viewBox="0 0 88 88" fill="none" xmlns="http://www.w3.org/2000/svg">
<circle cx="44" cy="44" r="44" fill="#577CDD"/>
<path d="M26.5 66C26.5 66 26.5 64 26.5 59C26.5 54 28.5 50.5 33 50.5C37.5 50.5 50 50.5 54.5 50.5C59 50.5 61.5 53.5 61.5 59C61.5 64.5 61.5 66 61.5 66" stroke="white" stroke-width="4" stroke-linecap="round"/>
<circle cx="44" cy="33" r="9" stroke="white" stroke-width="4"/>
<path fill-rule="evenodd" clip-rule="evenodd" d="M41.5981 62.4162C41.7432 62.3445 41.9053 62.3071 42.0698 62.3071H45.93C46.0946 62.3071 46.2568 62.3445 46.4019 62.4162C46.5469 62.4878 46.6705 62.5912 46.7618 62.7174L47.5735 63.8432L47.5742 63.844C47.8482 64.2232 48.2194 64.534 48.6548 64.749C49.0902 64.9639 49.5763 65.0764 50.07 65.0763H51C51.2652 65.0763 51.5196 65.1736 51.7071 65.3467C51.8946 65.5198 52 65.7546 52 65.9994V74.3071C52 74.5519 51.8946 74.7867 51.7071 74.9598C51.5196 75.1329 51.2652 75.2302 51 75.2302H37C36.7348 75.2302 36.4804 75.1329 36.2929 74.9598C36.1054 74.7867 36 74.5519 36 74.3071V65.9994C36 65.7546 36.1054 65.5198 36.2929 65.3467C36.4804 65.1736 36.7348 65.0763 37 65.0763H37.9299C38.4236 65.0764 38.9098 64.9639 39.3452 64.749C39.7806 64.534 40.1518 64.2232 40.4259 63.844L40.4265 63.8432L41.2379 62.7179C41.3292 62.5916 41.453 62.4878 41.5981 62.4162ZM40.6548 60.7883C41.0902 60.5733 41.5763 60.4609 42.07 60.4609H45.9299C46.4236 60.4609 46.9098 60.5733 47.3452 60.7883C47.7806 61.0032 48.1518 61.3141 48.4258 61.6932L48.4265 61.6941L49.2379 62.8194C49.3292 62.9456 49.4531 63.0495 49.5981 63.1211C49.7432 63.1927 49.9053 63.2302 50.0699 63.2302H51C51.7957 63.2302 52.5587 63.5219 53.1213 64.0413C53.6839 64.5606 54 65.265 54 65.9994V74.3071C54 75.0415 53.6839 75.7459 53.1213 76.2652C52.5587 76.7846 51.7957 77.0763 51 77.0763H37C36.2043 77.0763 35.4413 76.7846 34.8787 76.2652C34.3161 75.7459 34 75.0415 34 74.3071V65.9994C34 65.265 34.3161 64.5606 34.8787 64.0413C35.4413 63.5219 36.2044 63.2302 37 63.2302H37.93C38.0946 63.2302 38.2568 63.1927 38.4019 63.1211C38.5469 63.0495 38.6706 62.946 38.7619 62.8198L39.5735 61.6941L39.5741 61.6932C39.8482 61.3141 40.2194 61.0032 40.6548 60.7883ZM42.5858 68.3863C42.9609 68.0401 43.4696 67.8456 44 67.8456C44.5304 67.8456 45.0391 68.0401 45.4142 68.3863C45.7893 68.7325 46 69.2021 46 69.6917C46 70.1813 45.7893 70.6509 45.4142 70.9971C45.0391 71.3434 44.5304 71.5379 44 71.5379C43.4696 71.5379 42.9609 71.3434 42.5858 70.9971C42.2107 70.6509 42 70.1813 42 69.6917C42 69.2021 42.2107 68.7325 42.5858 68.3863ZM44 65.9994C42.9391 65.9994 41.9217 66.3884 41.1716 67.0809C40.4214 67.7733 40 68.7124 40 69.6917C40 70.671 40.4214 71.6101 41.1716 72.3026C41.9217 72.995 42.9391 73.384 44 73.384C45.0609 73.384 46.0783 72.995 46.8284 72.3026C47.5786 71.6101 48 70.671 48 69.6917C48 68.7124 47.5786 67.7733 46.8284 67.0809C46.0783 66.3884 45.0609 65.9994 44 65.9994Z" fill="white"/>
</svg>
