<svg width="31" height="30" viewBox="0 0 31 30" fill="none" xmlns="http://www.w3.org/2000/svg">
<rect x="0.5" width="30" height="30" rx="4" fill="#FFEEDB"/>
<path fill-rule="evenodd" clip-rule="evenodd" d="M3.80026 16.774C3.739 16.5979 3.83208 16.4053 4.00814 16.3429C12.3012 13.4561 19.5619 9.20983 25.6071 3.72649L23.8881 3.81994C23.7029 3.82951 23.5425 3.6873 23.5323 3.50021C23.5222 3.31458 23.665 3.15453 23.8513 3.14496L26.5165 3H26.5522C26.6403 3.0046 26.7242 3.04397 26.784 3.10964C26.8524 3.18433 26.8837 3.2857 26.8688 3.38633L26.4841 6.02773C26.4596 6.19588 26.3152 6.31638 26.1504 6.31638C26.1342 6.31638 26.118 6.31509 26.1013 6.31233C25.9166 6.2851 25.7889 6.11457 25.8156 5.93023L26.0639 4.22396C19.9509 9.76993 12.6115 14.0636 4.22993 16.9817C4.19314 16.9951 4.15579 17.0006 4.11863 17.0006C3.97918 17.0006 3.84875 16.9138 3.8 16.7742L3.80026 16.774ZM28.1054 27.3238V9.85891H25.5416V27.3238H28.1054ZM28.4433 9.18262H25.204C25.0175 9.18262 24.8661 9.33421 24.8661 9.52002V27.6612C24.8661 27.8483 25.0171 27.9986 25.204 27.9986H28.4433C28.63 27.9986 28.7812 27.8482 28.7812 27.6612V9.52002C28.7812 9.3344 28.6298 9.18262 28.4433 9.18262ZM21.0771 27.3238V13.5305H18.5133V27.3238H21.0771ZM21.415 12.8542H18.1756C17.989 12.8542 17.8376 13.0062 17.8376 13.1918V27.6614C17.8376 27.8485 17.989 27.9988 18.1756 27.9988H21.4148C21.6014 27.9988 21.7528 27.8483 21.7528 27.6614L21.7526 13.1918C21.753 13.0062 21.6016 12.8542 21.415 12.8542H21.415ZM14.0488 27.3238V16.4985H11.485V27.3234H14.0488V27.3238ZM14.3868 15.824H11.1475C10.9609 15.824 10.8095 15.9745 10.8095 16.1614V27.6612C10.8095 27.8483 10.9609 27.9986 11.1475 27.9986H14.3868C14.5733 27.9986 14.7247 27.8482 14.7247 27.6612V16.1614C14.7247 15.9743 14.5733 15.824 14.3868 15.824ZM7.02053 27.3238H4.45712V20.8727H7.02091V27.3238H7.02053ZM7.35848 20.1973H4.1192C3.93247 20.1973 3.78125 20.3478 3.78125 20.5349V27.6614C3.78125 27.8485 3.93229 27.9988 4.1192 27.9988H7.35848C7.54502 27.9988 7.69643 27.8483 7.69643 27.6614V20.5349C7.69643 20.3478 7.54503 20.1975 7.35848 20.1975V20.1973Z" fill="#DBA362" fill-opacity="0.8"/>
<path d="M3.97475 16.2487L3.97527 16.2485C12.1609 13.3991 19.3377 9.22391 25.3302 3.84169L23.8936 3.9198L23.8933 3.91981C23.6535 3.93219 23.4456 3.74827 23.4325 3.50565L3.97475 16.2487ZM3.97475 16.2487C3.77054 16.321 3.65229 16.5291 3.68757 16.736M3.97475 16.2487L3.80026 16.774M26.5165 2.89985V2.9H26.5522H26.5574L26.5574 2.90014C26.6716 2.9061 26.7802 2.957 26.8578 3.04221M26.5165 2.89985L26.9677 3.40074C26.987 3.27037 26.9464 3.13898 26.8578 3.04221M26.5165 2.89985L26.511 2.90015M26.5165 2.89985L26.511 2.90015M26.8578 3.04221C26.8578 3.04217 26.8577 3.04213 26.8577 3.04209L26.784 3.10964L26.8579 3.04232C26.8579 3.04228 26.8578 3.04225 26.8578 3.04221ZM4.26343 17.0759C12.5626 14.1865 19.8429 9.94962 25.925 4.48412L25.7166 5.91583L25.7166 5.91591C25.682 6.15487 25.8474 6.37553 26.0858 6.41114C26.1077 6.41469 26.129 6.41638 26.1504 6.41638C26.3639 6.41638 26.5513 6.26036 26.5831 6.04215L26.9677 3.40098L3.80026 16.774M4.26343 17.0759C4.26323 17.076 4.26302 17.076 4.26281 17.0761L4.22993 16.9817L4.26422 17.0756C4.26396 17.0757 4.2637 17.0758 4.26343 17.0759ZM4.26343 17.0759C4.21446 17.0937 4.16558 17.1006 4.11863 17.1006C3.93802 17.1006 3.7688 16.9882 3.70559 16.8071L3.68225 16.7403L3.68757 16.736M3.68757 16.736C3.69161 16.7597 3.69766 16.7834 3.70581 16.8068L3.79993 16.7741L3.80026 16.774M3.68757 16.736L3.73753 16.6961L3.73779 16.6959L3.80026 16.774M26.511 2.90015L23.8462 3.0451L26.511 2.90015ZM21.8526 13.192C21.8531 12.951 21.6568 12.7542 21.415 12.7542H18.1756C17.9338 12.7542 17.7376 12.951 17.7376 13.1918V27.6614C17.7376 27.9041 17.9341 28.0988 18.1756 28.0988H21.4148C21.6563 28.0988 21.8528 27.9038 21.8528 27.6614L21.8526 13.192ZM21.8526 13.192L21.7526 13.1918L21.8526 13.1918V13.192ZM7.45848 20.1089V20.0973H7.35848H4.1192C3.87746 20.0973 3.68125 20.2924 3.68125 20.5349V27.6614C3.68125 27.904 3.8773 28.0988 4.1192 28.0988H7.35848C7.59997 28.0988 7.79643 27.9038 7.79643 27.6614V20.5349C7.79643 20.3268 7.65192 20.154 7.45848 20.1089ZM23.846 3.04511C23.6042 3.05762 23.4194 3.26514 23.4325 3.50561L23.846 3.04511ZM25.6416 9.95891H28.0054V27.2238H25.6416V9.95891ZM28.4433 9.08262H25.204C24.9623 9.08262 24.7661 9.27891 24.7661 9.52002V27.6612C24.7661 27.9038 24.9621 28.0986 25.204 28.0986H28.4433C28.685 28.0986 28.8813 27.9036 28.8813 27.6612V9.52002C28.8813 9.27913 28.685 9.08262 28.4433 9.08262ZM18.6133 13.6305H20.9771V27.2238H18.6133V13.6305ZM11.585 16.5985H13.9488V27.2234H11.585V16.5985ZM14.3868 15.724H11.1475C10.906 15.724 10.7095 15.919 10.7095 16.1614V27.6612C10.7095 27.9039 10.906 28.0986 11.1475 28.0986H14.3868C14.6282 28.0986 14.8247 27.9037 14.8247 27.6612V16.1614C14.8247 15.9188 14.6282 15.724 14.3868 15.724ZM6.92091 27.2238H4.55712V20.9727H6.92091V27.2238Z" stroke="#DBA362" stroke-opacity="0.8" stroke-width="0.2"/>
</svg>
