<svg width="30" height="30" viewBox="0 0 30 30" fill="none" xmlns="http://www.w3.org/2000/svg">
<rect width="30" height="30" rx="4" fill="#E5F6FD"/>
<path d="M23.2551 8.47911C23.2189 8.15261 22.9647 7.89851 22.6383 7.89851H19.6267C19.6267 5.21341 17.4133 3 14.7281 3C12.043 3 9.82964 5.17719 9.82964 7.89851H6.81804C6.49154 7.89851 6.23744 8.15262 6.20124 8.47911L4.75 24.6619V24.7345C4.75 26.5488 6.41921 28 8.45106 28H21.0054C23.0373 28 24.7065 26.5488 24.7065 24.7345V24.6619L23.2551 8.47911ZM14.7282 4.27007C16.7239 4.27007 18.3567 5.9028 18.3567 7.8985H11.0998C11.0998 5.90306 12.7325 4.27007 14.7282 4.27007ZM21.0054 26.7663H8.451C7.10854 26.7663 6.01995 25.8592 5.9838 24.7706L7.36266 9.16839H9.82986V11.3456C9.82986 11.6721 10.1202 11.9624 10.4467 11.9624C10.7732 11.9624 11.0635 11.6721 11.0635 11.3456V9.16839H18.3566V11.3456C18.3566 11.6721 18.6469 11.9624 18.9734 11.9624C19.2999 11.9624 19.5902 11.6721 19.5902 11.3456V9.16839H22.0574L23.4363 24.7706C23.4365 25.8592 22.3482 26.7663 21.0055 26.7663H21.0054Z" fill="#009ED8"/>
</svg>
