<svg width="31" height="30" viewBox="0 0 31 30" fill="none" xmlns="http://www.w3.org/2000/svg">
<rect x="0.5" width="30" height="30" rx="4" fill="#FFEEDB"/>
<path d="M6.90492 2.90021C6.33842 2.90021 5.77049 3.18245 5.45256 3.65814L2.8922 7.23069L2.88758 7.23713L2.88404 7.24422C2.88285 7.24658 2.88164 7.249 2.8804 7.25147C2.85345 7.3052 2.81406 7.38369 2.81406 7.4676V24.9799C2.81406 25.8987 3.54378 26.6287 4.46282 26.6287H26.3532C27.2733 26.6287 28.002 25.8678 28.002 24.9799L28.0018 7.48752C28.014 7.45306 28.016 7.41949 28.0125 7.38873H28.0668L27.9534 7.23048L25.3921 3.65659L25.3915 3.6557C25.0462 3.18502 24.5108 2.9 23.9407 2.9L17.7459 2.90021H6.90492ZM18.3013 7.51111V12.7522L15.4705 11.2214L15.4225 11.1955L15.3747 11.2218L12.5449 12.781V7.54104L13.6518 3.69576H17.2237L18.3013 7.51111ZM6.09302 4.10054L6.09303 4.10055L6.09357 4.09977C6.28123 3.83174 6.57621 3.69576 6.90519 3.69576H12.8188L11.8629 7.06965H3.97235L6.09302 4.10054ZM18.7386 13.4862L18.747 13.4825L18.7547 13.4775C18.9587 13.3415 19.0971 13.1029 19.0971 12.8582L19.0967 7.86528H27.2359L27.2362 24.9798C27.2362 25.4585 26.8363 25.8329 26.383 25.8329H4.46283C3.98407 25.8329 3.60968 25.433 3.60968 24.9798V7.86528H11.7489V12.8582C11.7489 13.1353 11.8894 13.3431 12.0914 13.4775C12.2008 13.5505 12.3406 13.5836 12.4744 13.5836C12.5798 13.5836 12.7167 13.5501 12.8237 13.4801L15.423 12.0783L18.0252 13.4817C18.2715 13.6217 18.5153 13.5818 18.7386 13.4862ZM23.9409 3.69576C24.264 3.69576 24.5629 3.85729 24.7543 4.10227L26.8739 7.06967H19.0131L18.0572 3.69578L23.9409 3.69576Z" fill="#DBA362" stroke="#DBA362" stroke-width="0.2"/>
<path d="M13.0391 7.06992H12.9391V7.16992V7.76553V7.86553H13.0391H17.8044H17.9044V7.76553V7.16992V7.06992H17.8044H13.0391Z" fill="#DBA362" stroke="#DBA362" stroke-width="0.2"/>
</svg>
